<svg width="11" height="15" viewBox="0 0 11 15" fill="none" xmlns="http://www.w3.org/2000/svg">
<path fill-rule="evenodd" clip-rule="evenodd" d="M0.43981 0.177334L4.09757 0.111136C4.19918 0.109297 4.25079 0.153066 4.3024 0.196835L10.3184 6.88292C10.3708 6.97137 10.3732 7.10544 10.3232 7.15105L4.65472 14.0486C4.60473 14.0942 4.55474 14.1398 4.45313 14.1417L0.541356 14.2124C0.439752 14.2143 0.337339 14.1714 0.284919 14.083C0.232499 13.9945 0.230881 13.9051 0.330869 13.8139L6.05586 7.22828C6.15584 7.13706 6.15342 7.003 6.0502 6.91546L0.24307 0.538522C0.19065 0.450064 0.189034 0.360685 0.187416 0.271307C0.237409 0.225699 0.338205 0.179172 0.43981 0.177334Z" fill="white"/>
</svg>
